<?xml version="1.0" encoding="UTF-8" standalone="no"?>
<!-- Generator: Adobe Illustrator 16.0.0, SVG Export Plug-In . SVG Version: 6.00 Build 0)  -->

<svg
   xmlns:dc="http://purl.org/dc/elements/1.1/"
   xmlns:cc="http://creativecommons.org/ns#"
   xmlns:rdf="http://www.w3.org/1999/02/22-rdf-syntax-ns#"
   xmlns:svg="http://www.w3.org/2000/svg"
   xmlns="http://www.w3.org/2000/svg"
   xmlns:sodipodi="http://sodipodi.sourceforge.net/DTD/sodipodi-0.dtd"
   xmlns:inkscape="http://www.inkscape.org/namespaces/inkscape"
   version="1.1"
   id="Layer_1"
   x="0px"
   y="0px"
   width="155.91"
   height="152"
   viewBox="0 0 155.91001 152"
   enable-background="new 0 0 403.977 152"
   xml:space="preserve"
   inkscape:version="0.91 r13725"
   sodipodi:docname="byrd_onecolor.svg"
   inkscape:export-filename="/home/gordon/Code/byrd/static/img/favicon.png"
   inkscape:export-xdpi="90"
   inkscape:export-ydpi="90"><metadata
     id="metadata115"><rdf:RDF><cc:Work
         rdf:about=""><dc:format>image/svg+xml</dc:format><dc:type
           rdf:resource="http://purl.org/dc/dcmitype/StillImage" /><dc:title></dc:title></cc:Work></rdf:RDF></metadata><defs
     id="defs113" /><sodipodi:namedview
     pagecolor="#ffffff"
     bordercolor="#666666"
     borderopacity="1"
     objecttolerance="10"
     gridtolerance="10"
     guidetolerance="10"
     inkscape:pageopacity="0"
     inkscape:pageshadow="2"
     inkscape:window-width="1920"
     inkscape:window-height="1041"
     id="namedview111"
     showgrid="false"
     inkscape:zoom="2.9407616"
     inkscape:cx="100.64722"
     inkscape:cy="82.342073"
     inkscape:window-x="0"
     inkscape:window-y="39"
     inkscape:window-maximized="0"
     inkscape:current-layer="Layer_1"
     fit-margin-top="0"
     fit-margin-left="0"
     fit-margin-right="0"
     fit-margin-bottom="0" /><path
     style="fill:#55487e"
     inkscape:connector-curvature="0"
     id="path5"
     d="M 140.471,30.105 77.955,0 15.439,30.105 0,97.751 43.262,152 112.648,152 155.91,97.751 140.471,30.105 Z m -29.853,117.448 -65.327,0 L 4.56,96.48 19.097,32.79 77.955,4.446 l 58.857,28.344 14.535,63.69 -40.729,51.073 z" /><path
     style="fill:#55487e"
     d="M 77.955078,8.609375 22.521484,35.304688 8.8300781,95.287109 46.117188,142.04492 c -3.122208,-10.21411 -11.334133,-41.44763 1.146484,-52.679686 0,0 -0.769406,-2.838406 -1.191406,-6.441406 l -0.01172,0.08203 c -7.514,-3.953 -10.710816,-10.139034 -11.780816,-16.406034 -0.096,0.051 -0.137668,-0.137153 -0.240669,-0.08615 0.1,-0.069 -0.04248,-0.163275 0.05252,-0.229275 -0.127128,-0.754544 -0.275784,-1.054138 -0.347222,-1.799156 -0.157683,0.03455 -0.123265,-0.328988 -0.123265,-0.328988 0.0097,-3.19881 0.217828,-5.916175 0.537109,-8.302734 0.01057,-0.09295 0.01634,-0.197283 0.02734,-0.289063 -0.077,-0.003 -0.147516,-0.0039 -0.228516,-0.0039 0.081,-0.008 0.153469,-0.01453 0.230469,-0.01953 0.061,-0.506 0.127219,-0.991985 0.199219,-1.458985 -0.104,-0.03 -0.20736,-0.05984 -0.31836,-0.08984 0.111,0.03 0.213313,0.05798 0.320313,0.08398 0.006,-0.047 0.01353,-0.09367 0.01953,-0.138672 -0.091,-0.03 -0.179391,-0.05884 -0.275391,-0.08984 0.099,0.029 0.183391,0.05398 0.275391,0.08398 0.002,-0.009 0.0039,-0.0183 0.0039,-0.0293 -0.084,-0.034 -0.163859,-0.07037 -0.255859,-0.109375 0.092,0.03 0.175766,0.06089 0.259766,0.08789 0.546,-3.455 1.304687,-5.740234 1.304687,-5.740234 0.250086,-0.424407 0.498506,-0.816455 0.748047,-1.216797 0.776095,-1.754198 1.608345,-3.020965 2.369141,-3.904297 -0.02712,-0.03091 -0.05217,-0.06027 -0.08008,-0.0918 0.02901,0.03031 0.05413,0.0584 0.08203,0.08789 0.518281,-0.601318 1.001346,-1.043917 1.40625,-1.349609 7.504479,-8.997847 13.798828,-8.371094 13.798828,-8.371094 l 1.808594,0 c 8.975102,-8.668272 21.609375,-4.69336 21.609375,-4.69336 8.437,0.375 19.878906,12.566407 19.878906,12.566407 26.067007,2.626 34.693357,9.751953 34.693357,9.751953 -13.88899,-0.629 -29.14793,2.811172 -41.29492,6.576172 l 2.410157,1.136718 16.105463,1.873047 25.4082,2.603516 c -17.20217,4.587841 -31.82301,7.376434 -42.539054,9.058594 0.632987,0.824109 0.917162,1.627801 1.277344,3.695312 0,0 -0.04914,5.651 0.755859,9.5 l 0.181641,0.06445 c 0,0 12.75245,-3.00114 17.43945,18.005856 0,0 3.17379,23.61475 -1.36914,37.83399 L 147.07812,95.287109 133.38867,35.304688 Z"
     id="polygon7"
     inkscape:connector-curvature="0"
     sodipodi:nodetypes="ccccccccccccccccccccccccccccccccccccccccccccccccc" /><g
     id="g4311"
     style="fill:#999999"><g
       transform="translate(0,2)"
       style="fill:#999999"
       id="g9"><g
         style="fill:#999999"
         id="g11" /></g><g
       transform="translate(0,2)"
       style="fill:#999999"
       id="g4303" /></g><g
     inkscape:groupmode="layer"
     id="layer1"
     inkscape:label="Layer 1" /></svg>